<!-- Agile Insurance brand logo. Replace this SVG to update the logo across the app and browser tab. -->
<svg xmlns="http://www.w3.org/2000/svg" viewBox="0 0 96 96" role="img" aria-labelledby="title desc">
  <title id="title">Agile Insurance Logo</title>
  <desc id="desc">Blue shield with an Agile Insurance A mark and protection check.</desc>
  <defs>
    <linearGradient id="shield" x1="16" y1="8" x2="86" y2="88" gradientUnits="userSpaceOnUse">
      <stop stop-color="#2563eb"/>
      <stop offset="1" stop-color="#4f46e5"/>
    </linearGradient>
    <linearGradient id="shine" x1="25" y1="12" x2="74" y2="74" gradientUnits="userSpaceOnUse">
      <stop stop-color="#ffffff" stop-opacity="0.95"/>
      <stop offset="1" stop-color="#bfdbfe" stop-opacity="0.88"/>
    </linearGradient>
  </defs>
  <path fill="url(#shield)" d="M48 5 82 18v24c0 22.9-13.5 39.9-34 49-20.5-9.1-34-26.1-34-49V18L48 5Z"/>
  <path fill="#ffffff" fill-opacity="0.16" d="M48 11 76 22v20c0 18.7-10.7 33.6-28 42.1C30.7 75.6 20 60.7 20 42V22l28-11Z"/>
  <path fill="url(#shine)" d="M31.5 65 44.8 25h11.4L69.5 65H58.7l-2.2-7.5H43.2L40.3 65H31.5Zm45.3-13.2a4.4 4.4 0 0 1 6.2 6.2L67.4 73.5a4.4 4.4 0 0 1-6.2 0l-7.4-7.4a4.4 4.4 0 1 1 6.2-6.2l4.3 4.3 12.5-12.4ZM45.5 49.2h9l-4.2-14.5h-.2l-4.6 14.5Z"/>
  <path fill="#93c5fd" fill-opacity="0.65" d="M26 23.5 48 15l22 8.5v8.2L48 23.1l-22 8.6v-8.2Z"/>
</svg>
